<?xml version="1.0" standalone="no"?>
<!DOCTYPE svg PUBLIC "-//W3C//DTD SVG 20010904//EN"
 "http://www.w3.org/TR/2001/REC-SVG-20010904/DTD/svg10.dtd">
<svg version="1.0" xmlns="http://www.w3.org/2000/svg"
 width="700.000000pt" height="700.000000pt" viewBox="0 0 700.000000 700.000000"
 preserveAspectRatio="xMidYMid meet">
<metadata>
Created by potrace 1.14, written by Peter Selinger 2001-2017
</metadata>
<g transform="translate(0.000000,700.000000) scale(0.100000,-0.100000)"
fill="#000000" stroke="none">
<path d="M980 6977 c0 -32 -38 -48 -127 -55 -40 -2 -73 -8 -73 -12 0 -9 -47
-30 -69 -30 -10 0 -29 -8 -42 -18 -13 -11 -37 -22 -54 -26 -16 -4 -38 -16 -48
-27 -10 -10 -23 -19 -30 -19 -7 0 -18 -9 -25 -20 -7 -11 -20 -20 -30 -20 -10
0 -28 -11 -40 -25 -12 -14 -26 -25 -32 -25 -5 0 -10 -6 -10 -14 0 -8 -9 -17
-19 -21 -11 -3 -23 -15 -26 -26 -4 -10 -13 -19 -21 -19 -8 0 -14 -4 -14 -9 0
-5 -19 -29 -43 -53 -24 -24 -47 -55 -50 -70 -4 -16 -12 -28 -17 -28 -5 0 -17
-14 -26 -32 -9 -18 -23 -38 -30 -46 -8 -7 -14 -24 -14 -37 0 -13 -8 -32 -19
-42 -10 -10 -21 -35 -24 -57 -3 -21 -14 -47 -24 -58 -17 -19 -18 -139 -18
-2742 l0 -2721 23 -29 c12 -16 22 -42 22 -57 0 -16 9 -38 20 -49 11 -11 20
-28 20 -39 0 -10 9 -29 19 -43 11 -13 23 -37 26 -51 4 -15 11 -27 15 -27 7 0
38 -43 68 -97 7 -13 19 -23 27 -23 7 0 17 -9 20 -20 3 -11 13 -20 22 -20 8 0
17 -9 20 -20 3 -10 14 -22 24 -25 10 -4 19 -13 19 -21 0 -8 5 -14 10 -14 6 0
20 -11 32 -25 12 -14 30 -25 40 -25 10 0 23 -9 30 -20 7 -11 18 -20 25 -20 7
0 20 -8 30 -19 10 -10 31 -21 47 -25 15 -4 41 -17 58 -29 l30 -22 2838 0 2838
0 30 22 c17 12 42 25 57 29 16 4 36 15 46 25 11 11 28 19 39 19 10 0 24 9 30
20 6 11 19 20 29 20 10 0 21 9 24 20 3 11 12 20 20 20 9 0 19 9 22 20 3 11 11
20 16 20 14 0 69 55 69 69 0 5 9 12 19 16 10 3 21 15 24 25 3 11 12 20 21 20
9 0 16 8 16 20 0 10 9 24 20 30 11 6 20 20 20 30 0 11 9 28 20 37 11 10 23 32
26 50 4 19 15 38 25 44 12 6 19 21 19 37 0 16 7 37 15 48 13 17 14 371 15
2802 0 2461 -2 2785 -15 2798 -8 9 -15 28 -15 43 0 15 -9 38 -20 51 -11 12
-22 32 -26 44 -4 11 -15 29 -25 39 -11 10 -19 26 -19 37 0 11 -9 24 -20 30
-11 6 -20 19 -20 29 0 10 -9 21 -20 24 -11 3 -20 12 -20 20 0 9 -9 19 -20 22
-11 3 -20 11 -20 16 0 14 -55 69 -69 69 -5 0 -12 9 -16 19 -3 10 -15 21 -25
24 -11 3 -20 12 -20 21 0 9 -8 16 -20 16 -10 0 -24 9 -30 20 -6 11 -19 20 -30
20 -10 0 -31 11 -46 25 -15 14 -35 25 -46 25 -10 0 -26 9 -35 20 -12 13 -30
20 -54 20 -22 0 -42 7 -53 19 -12 14 -36 20 -95 24 -93 6 -121 18 -121 52 l0
25 -2560 0 -2560 0 0 -23z m5209 -514 c16 -13 39 -23 49 -23 10 0 27 -8 36
-19 9 -10 30 -21 46 -24 16 -4 31 -15 35 -26 3 -10 15 -21 25 -24 11 -3 20
-12 20 -21 0 -9 7 -16 15 -16 9 0 18 -7 22 -16 3 -9 15 -26 27 -39 40 -45 66
-83 66 -99 0 -9 8 -24 18 -34 13 -13 21 -40 25 -90 3 -39 11 -80 16 -91 15
-28 15 -4993 1 -5007 -6 -6 -14 -44 -19 -84 -5 -50 -13 -77 -24 -85 -9 -7 -17
-19 -17 -28 0 -9 -9 -24 -19 -34 -11 -10 -22 -30 -26 -45 -4 -15 -16 -30 -26
-33 -10 -4 -19 -13 -19 -22 0 -8 -9 -17 -20 -20 -11 -3 -20 -12 -20 -19 0 -8
-11 -19 -25 -24 -14 -5 -25 -14 -25 -20 0 -6 -15 -17 -34 -25 -18 -8 -36 -21
-39 -30 -4 -10 -19 -15 -44 -15 -27 0 -42 -6 -51 -20 -12 -20 -23 -20 -2647
-20 -2624 0 -2634 0 -2645 20 -6 11 -21 20 -35 20 -34 0 -55 10 -55 26 0 8 -9
14 -20 14 -10 0 -24 9 -30 20 -6 11 -18 20 -26 20 -18 0 -104 89 -104 107 0 7
-9 17 -20 23 -11 6 -20 18 -20 28 0 9 -9 23 -20 30 -11 7 -20 23 -20 37 0 14
-10 40 -23 56 l-22 31 0 2603 0 2603 23 31 c12 16 22 42 22 56 0 14 9 30 20
37 11 7 20 21 20 30 0 10 9 22 20 28 11 6 20 17 20 25 0 20 85 105 104 105 8
0 20 9 26 20 6 11 16 20 23 20 7 0 18 9 25 20 7 12 23 20 41 20 15 0 36 9 46
20 13 14 34 20 84 23 36 2 1219 3 2628 3 l2561 -1 31 -22z"/>
<path d="M5085 5780 c-178 -52 -279 -135 -328 -271 -37 -102 -39 -248 -3 -341
23 -64 54 -115 91 -155 24 -26 106 -83 119 -83 5 0 17 -7 26 -15 27 -24 210
-40 311 -27 76 10 162 42 207 76 32 24 112 109 112 119 0 6 7 18 15 27 21 23
55 168 55 228 -1 70 -33 191 -63 239 -36 56 -112 128 -161 152 -106 50 -121
54 -236 57 -63 2 -128 -1 -145 -6z"/>
<path d="M2605 4604 c-77 -7 -177 -23 -222 -34 -45 -11 -93 -20 -105 -20 -13
-1 -41 -8 -63 -16 -22 -9 -58 -20 -80 -25 -22 -5 -56 -15 -75 -23 -19 -8 -69
-26 -110 -42 -41 -16 -88 -36 -105 -46 -16 -10 -35 -18 -41 -18 -11 0 -126
-52 -154 -70 -8 -5 -56 -32 -107 -60 -100 -55 -141 -94 -122 -116 6 -7 18 -28
28 -46 10 -18 28 -51 41 -73 13 -22 41 -74 63 -115 22 -41 50 -93 63 -115 13
-22 32 -59 43 -82 27 -57 75 -68 123 -26 19 17 39 28 182 101 58 28 109 52
116 52 6 0 28 8 48 19 44 22 105 43 232 78 79 22 122 27 255 31 192 5 246 -4
359 -58 142 -68 227 -177 281 -359 25 -85 34 -212 16 -239 -5 -9 -47 -17 -117
-23 -60 -5 -143 -16 -184 -24 -41 -8 -100 -17 -130 -21 -30 -3 -88 -15 -129
-25 -41 -10 -87 -19 -103 -19 -15 0 -48 -7 -74 -16 -25 -8 -67 -19 -93 -23
-58 -11 -216 -57 -258 -76 -17 -8 -39 -15 -50 -15 -10 0 -31 -9 -48 -20 -16
-11 -37 -20 -47 -20 -25 0 -254 -120 -339 -179 -113 -76 -299 -274 -299 -317
0 -6 -6 -17 -14 -23 -8 -7 -17 -24 -21 -39 -4 -15 -12 -34 -19 -42 -8 -8 -20
-44 -29 -80 -8 -36 -21 -85 -27 -110 -19 -72 -16 -363 4 -433 9 -31 21 -76 25
-100 20 -93 95 -234 180 -337 53 -64 124 -130 139 -130 6 0 15 -6 19 -13 11
-17 103 -77 118 -77 7 0 18 -6 24 -14 6 -8 33 -19 59 -26 26 -6 51 -15 57 -20
12 -10 131 -38 225 -52 89 -14 322 -4 384 16 27 9 61 16 75 16 14 1 44 9 66
20 22 11 46 19 54 20 14 0 102 37 156 66 17 9 62 33 100 53 39 21 97 56 130
79 139 98 162 115 199 148 30 27 41 32 52 23 21 -17 41 -100 54 -224 7 -70 17
-115 26 -125 22 -22 625 -28 643 -6 9 11 11 284 8 1178 l-3 1163 -27 130 c-15
72 -33 148 -41 170 -9 22 -15 51 -16 65 0 14 -9 39 -20 55 -11 17 -20 37 -20
45 0 8 -16 44 -35 80 -19 36 -40 76 -47 90 -22 44 -164 214 -209 251 -67 54
-158 112 -229 146 -112 53 -138 63 -154 63 -9 0 -42 9 -73 19 -57 19 -347 53
-428 50 -22 -1 -103 -8 -180 -15z m672 -1844 c10 -19 13 -105 11 -381 l-3
-356 -35 -33 c-30 -29 -140 -118 -220 -178 -42 -32 -188 -112 -204 -112 -9 0
-39 -10 -68 -22 -47 -19 -72 -22 -213 -22 -153 -1 -163 1 -230 28 -38 15 -77
34 -86 42 -8 8 -20 14 -25 14 -14 0 -67 58 -93 101 -83 141 -83 349 2 489 57
94 218 217 357 273 119 48 335 111 420 122 25 4 65 13 90 20 25 8 77 17 115
20 39 4 86 10 105 15 50 12 63 8 77 -20z"/>
<path d="M4810 4251 c-7 -13 -10 -522 -10 -1575 0 -1527 0 -1555 19 -1566 28
-14 718 -14 760 1 l31 11 0 1557 c0 1497 -1 1559 -18 1574 -17 15 -59 17 -395
17 -362 0 -377 -1 -387 -19z"/>
</g>
</svg>
